#!OML:ASF F:\VICON\USERDATA\INSTALL\rory3\rory3.ASF
:FULLY-SPECIFIED
:DEGREES
304
root 1.7136 19.6076 3.9898 -167.596 -0.780584 -181.838
lowerback 12.458 2.15275 -2.17657
upperback 1.85446 2.41782 0.816535
thorax -5.16163 1.15458 1.68598
lowerneck -24.6886 0.158992 -8.05765
upperneck 29.6927 2.12288 1.52935
head 14.221 -0.149966 2.30364
rclavicle -2.18663e-015 5.56597e-015
rhumerus 20.3588 1.66058 -72.6466
rradius 69.6887
rwrist -1.95706
rhand -32.2612 -1.00038
rfingers 7.12502
rthumb -5.5009 -30.909
lclavicle -2.18663e-015 5.56597e-015
lhumerus 44.1486 -0.686876 73.4081
lradius 59.0686
lwrist 28.5258
lhand -16.2391 35.0983
lfingers 7.12502
lthumb 9.96952 64.8422
rfemur -7.60386 -0.729644 19.1703
rtibia 8.95685
rfoot 10.1992 -17.4221
rtoes 19.4882
lfemur -67.6527 4.292 -27.7029
ltibia 73.0825
lfoot -20.3151 -11.4901
ltoes 2.15527
305
root 1.6743 19.6962 3.94529 -167.457 -0.30411 -181.711
lowerback 12.5059 2.18755 -2.18276
upperback 1.72023 2.47302 0.850478
thorax -5.33393 1.18877 1.71155
lowerneck -24.5013 0.248735 -8.15713
upperneck 30.0109 2.20123 1.59185
head 14.3128 -0.150869 2.35962
rclavicle -2.08724e-014 -2.3059e-014
rhumerus 19.621 1.89271 -72.8351
rradius 69.9279
rwrist -2.09313
rhand -32.011 -0.447405
rfingers 7.12502
rthumb -5.25936 -30.3621
lclavicle -2.08724e-014 -2.3059e-014
lhumerus 44.0379 -0.874158 73.4821
lradius 58.9948
lwrist 29.4319
lhand -16.5744 35.085
lfingers 7.12502
lthumb 9.646 64.8442
rfemur -7.84516 -0.573458 18.9335
rtibia 8.62094
rfoot 11.7258 -19.2717
rtoes 21.7804
lfemur -66.9625 4.34241 -27.5742
ltibia 72.1777
lfoot -20.4549 -11.0881
ltoes 3.13114
306
root 1.63783 19.7803 3.91014 -167.399 0.206742 -181.382
lowerback 12.7152 2.01497 -2.08643
upperback 1.6449 2.62747 0.928217
thorax -5.53088 1.4234 1.68937
lowerneck -24.5163 0.344669 -8.07045
upperneck 30.4048 2.30997 1.43561
head 14.4879 -0.154084 2.30402
rclavicle 2.8625e-014 9.54166e-015
rhumerus 19.0134 2.12649 -72.9716
rradius 70.188
rwrist -2.40223
rhand -31.7982 -0.0520704
rfingers 7.12502
rthumb -5.05389 -29.9718
lclavicle 2.8625e-014 9.54166e-015
lhumerus 43.9782 -0.961601 73.664
lradius 58.9666
lwrist 29.9529
lhand -16.2766 35.6163
lfingers 7.12502
lthumb 9.93331 65.3619
rfemur -8.20845 -0.332388 18.9327
rtibia 8.61335
rfoot 13.0574 -20.97
rtoes 23.9873
lfemur -66.2551 4.46263 -27.1817
ltibia 71.2814
lfoot -20.6434 -10.5837
ltoes 2.62533
307
root 1.60368 19.8571 3.8786 -167.344 0.806614 -181.203
lowerback 12.9884 2.11538 -2.11046
upperback 1.58768 2.75227 0.956075
thorax -5.75136 1.48689 1.69932
lowerneck -24.6541 0.478092 -7.97003
upperneck 30.7889 2.4895 1.29086
head 14.6829 -0.120973 2.26589
rclavicle -8.54774e-015 1.27222e-014
rhumerus 18.5137 2.32936 -73.104
rradius 70.3512
rwrist -2.43775
rhand -31.3795 0.0283513
rfingers 7.12502
rthumb -4.64957 -29.9006
lclavicle -8.54774e-015 1.27222e-014
lhumerus 43.9475 -1.0467 73.9312
lradius 58.969
lwrist 30.5254
lhand -16.0015 36.0092
lfingers 7.12502
lthumb 10.1987 65.742
rfemur -8.71303 -0.0376649 18.7621
rtibia 8.86379
rfoot 14.3485 -22.2755
rtoes 25.7401
lfemur -65.5364 4.62741 -26.9774
ltibia 70.3498
lfoot -20.903 -9.97106
ltoes 2.08928
308
root 1.56697 19.937 3.83765 -167.238 1.31297 -181.147
lowerback 13.0745 2.19909 -2.18893
upperback 1.51658 2.84462 0.958228
thorax -5.8828 1.53313 1.72452
lowerneck -24.6644 0.573894 -7.99551
upperneck 31.147 2.59856 1.28508
head 14.8396 -0.11235 2.29074
rclavicle -1.19271e-014 -1.55052e-014
rhumerus 17.9906 2.50679 -73.2432
rradius 70.4073
rwrist -2.07126
rhand -30.8834 -0.126572
rfingers 7.12502
rthumb -4.17057 -30.0655
lclavicle -1.19271e-014 -1.55052e-014
lhumerus 43.8165 -1.28983 74.1019
lradius 58.906
lwrist 31.1728
lhand -16.0918 35.665
lfingers 7.12502
lthumb 10.1116 65.402
rfemur -9.28373 0.116747 18.4697
rtibia 9.31871
rfoot 15.5939 -23.1176
rtoes 26.4382
lfemur -64.8067 4.6998 -26.9526
ltibia 69.384
lfoot -21.046 -9.43114
ltoes 2.38005
309
root 1.53018 20.0221 3.79205 -167.069 1.72438 -181.031
lowerback 12.9243 2.22711 -2.18602
upperback 1.46951 2.87963 0.979743
thorax -5.85218 1.54797 1.74378
lowerneck -24.6603 0.648813 -8.03615
upperneck 31.5307 2.65811 1.32821
head 15.0077 -0.122433 2.32914
rclavicle 1.27222e-014 2.62396e-014
rhumerus 17.536 2.76706 -73.3897
rradius 70.3545
rwrist -1.84923
rhand -30.592 0.127292
rfingers 7.12502
rthumb -3.88915 -29.817
lclavicle 1.27222e-014 2.62396e-014
lhumerus 43.6201 -1.51714 74.0816
lradius 58.8556
lwrist 31.7829
lhand -16.1719 35.4195
lfingers 7.12502
lthumb 10.0344 65.1603
rfemur -10.0028 0.194894 18.2627
rtibia 10.026
rfoot 16.8488 -23.434
rtoes 26.3111
lfemur -64.1101 4.68372 -26.8497
ltibia 68.3986
lfoot -21.0009 -8.93845
ltoes 2.31566
310
root 1.49604 20.1062 3.74597 -166.878 2.15969 -180.903
lowerback 12.643 2.28144 -2.18596
upperback 1.49147 2.95586 1.00617
thorax -5.67813 1.58307 1.76885
lowerneck -24.7989 0.704004 -8.06507
upperneck 31.9195 2.72616 1.32287
head 15.2131 -0.133376 2.34983
rclavicle -1.53064e-014 0
rhumerus 17.1288 2.98873 -73.4204
rradius 70.3579
rwrist -1.93802
rhand -30.5123 0.549882
rfingers 7.12502
rthumb -3.81217 -29.3958
lclavicle -1.53064e-014 0
lhumerus 43.4604 -1.76635 74.0826
lradius 58.9041
lwrist 32.3099
lhand -16.0054 35.5113
lfingers 7.12502
lthumb 10.1949 65.2443
rfemur -10.7759 0.209854 18.1017
rtibia 10.8002
rfoot 18.1447 -23.5171
rtoes 26.6018
lfemur -63.4227 4.67105 -26.7226
ltibia 67.4135
lfoot -21.1792 -8.30369
ltoes 1.60377
311
root 1.46166 20.1879 3.70169 -166.626 2.58041 -180.938
lowerback 12.275 2.33851 -2.31423
upperback 1.49714 3.01428 0.990651
thorax -5.47658 1.61034 1.82888
lowerneck -24.849 0.750521 -8.0989
upperneck 32.2494 2.79789 1.24278
head 15.3758 -0.15298 2.33792
rclavicle -1.51076e-014 1.23246e-014
rhumerus 16.7735 3.17609 -73.4282
rradius 70.329
rwrist -2.04696
rhand -30.4302 0.906871
rfingers 7.12502
rthumb -3.73293 -29.0402
lclavicle -1.51076e-014 1.23246e-014
lhumerus 43.2548 -2.02256 74.1994
lradius 58.9544
lwrist 32.6381
lhand -15.3665 35.7724
lfingers 7.12502
lthumb 10.8112 65.4741
rfemur -11.6341 0.20168 17.7747
rtibia 11.6501
rfoot 18.9113 -23.7817
rtoes 27.2302
lfemur -62.8341 4.58559 -26.7893
ltibia 66.4186
lfoot -21.2742 -7.66936
ltoes 1.04456
312
root 1.42614 20.2654 3.66361 -166.459 2.91131 -181.007
lowerback 12.061 2.3519 -2.41012
upperback 1.46852 3.01443 0.943031
thorax -5.39028 1.60885 1.8407
lowerneck -24.7029 0.804577 -8.20107
upperneck 32.5242 2.81544 1.34145
head 15.4659 -0.174438 2.39889
rclavicle -4.96962e-015 3.57812e-015
rhumerus 16.4286 3.39787 -73.5469
rradius 70.235
rwrist -2.12855
rhand -30.3854 1.25012
rfingers 7.12502
rthumb -3.68967 -28.6977
lclavicle -4.96962e-015 3.57812e-015
lhumerus 42.9589 -2.30742 74.2521
lradius 58.9849
lwrist 32.9744
lhand -14.7256 36.0498
lfingers 7.12502
lthumb 11.4294 65.7182
rfemur -12.5168 -0.0683026 17.4747
rtibia 12.7372
rfoot 19.5499 -23.7872
rtoes 26.2125
lfemur -62.201 4.40193 -26.8714
ltibia 65.4091
lfoot -21.1658 -6.99023
ltoes 0.0586734
313
root 1.39486 20.3409 3.63406 -166.415 3.36217 -181.085
lowerback 12.0916 2.38334 -2.61168
upperback 1.43296 3.02208 0.897213
thorax -5.45297 1.61569 1.90278
lowerneck -24.5987 0.930762 -8.27639
upperneck 32.8661 2.91403 1.47596
head 15.5911 -0.15942 2.48812
rclavicle 1.41137e-014 -1.15295e-014
rhumerus 16.0248 3.68431 -73.7519
rradius 70.2124
rwrist -2.19835
rhand -30.3138 1.57929
rfingers 7.12502
rthumb -3.62051 -28.3697
lclavicle 1.41137e-014 -1.15295e-014
lhumerus 42.5598 -2.52412 74.1769
lradius 59.0115
lwrist 33.4106
lhand -14.3634 36.8731
lfingers 7.12502
lthumb 11.7787 66.5219
rfemur -13.4273 -0.012554 17.1456
rtibia 14.0769
rfoot 19.6939 -23.8391
rtoes 24.4842
lfemur -61.4552 4.34925 -26.9617
ltibia 64.3772
lfoot -21.2985 -6.43939
ltoes 0.728467
314
root 1.3712 20.4153 3.61161 -166.344 3.56718 -181.294
lowerback 12.1762 2.34271 -2.93677
upperback 1.38957 2.91623 0.8507
thorax -5.55339 1.57035 2.051
lowerneck -24.5792 1.07895 -8.18257
upperneck 33.1743 3.0767 1.37486
head 15.727 -0.129291 2.46169
rclavicle -7.95139e-015 7.95139e-016
rhumerus 15.8425 4.02443 -73.8088
rradius 70.0055
rwrist -2.45196
rhand -30.193 1.88734
rfingers 7.12502
rthumb -3.50382 -28.0636
lclavicle -7.95139e-015 7.95139e-016
lhumerus 42.1461 -2.71781 74.0984
lradius 59.071
lwrist 33.7232
lhand -14.3189 37.4943
lfingers 7.12502
lthumb 11.8216 67.1406
rfemur -14.3972 0.171831 16.7622
rtibia 15.5518
rfoot 19.0027 -24.3239
rtoes 23.3543
lfemur -60.7647 4.04805 -27.0897
ltibia 63.3251
lfoot -21.2222 -5.87215
ltoes 0.230992
315
root 1.34835 20.4824 3.58814 -166.355 3.86177 -181.456
lowerback 12.2836 2.33758 -3.21098
upperback 1.39989 2.86672 0.786891
thorax -5.60897 1.55234 2.14316
lowerneck -24.5862 1.15394 -8.06817
upperneck 33.428 3.1572 1.20173
head 15.8533 -0.136984 2.38421
rclavicle -4.96962e-015 1.07344e-014
rhumerus 15.8334 4.41102 -73.7701
rradius 69.7091
rwrist -2.92052
rhand -30.243 2.3836
rfingers 7.12502
rthumb -3.55209 -27.5666
lclavicle -4.96962e-015 1.07344e-014
lhumerus 41.8097 -2.89684 74.0809
lradius 59.0961
lwrist 33.844
lhand -15.343 37.9189
lfingers 7.12502
lthumb 10.8339 67.6195
rfemur -15.2684 0.215029 16.4507
rtibia 17.0189
rfoot 17.8973 -25.0222
rtoes 22.9799
lfemur -59.9941 3.83821 -27.1585
ltibia 62.2964
lfoot -21.2141 -5.4244
ltoes 0.744925
316
root 1.3263 20.545 3.56125 -166.291 4.07693 -181.473
lowerback 12.2501 2.3016 -3.29126
upperback 1.40521 2.8059 0.739213
thorax -5.58218 1.52307 2.15026
lowerneck -24.5905 1.19149 -8.16058
upperneck 33.6932 3.15806 1.33929
head 15.9759 -0.155913 2.46079
rclavicle -1.39149e-014 7.95139e-015
rhumerus 15.8038 4.74316 -73.8142
rradius 69.4956
rwrist -3.23914
rhand -30.2602 2.59241
rfingers 7.12502
rthumb -3.56869 -27.3575
lclavicle -1.39149e-014 7.95139e-015
lhumerus 41.4711 -2.98216 74.2092
lradius 59.1443
lwrist 33.838
lhand -16.7289 38.975
lfingers 7.12502
lthumb 9.49688 68.741
rfemur -16.1255 0.150352 16.324
rtibia 18.3959
rfoot 16.1756 -25.8044
rtoes 23.6882
lfemur -59.331 3.61651 -27.0898
ltibia 61.3106
lfoot -21.0505 -4.92437
ltoes 0.349508
